<?xml version="1.0" encoding="UTF-8" standalone="no"?>
<svg
   viewBox="0 0 24 24"
   x="0px"
   y="0px"
   version="1.1"
   id="svg850"
   sodipodi:docname="change_priority.svg"
   width="24"
   height="24"
   inkscape:version="1.1 (c68e22c387, 2021-05-23)"
   xmlns:inkscape="http://www.inkscape.org/namespaces/inkscape"
   xmlns:sodipodi="http://sodipodi.sourceforge.net/DTD/sodipodi-0.dtd"
   xmlns="http://www.w3.org/2000/svg"
   xmlns:svg="http://www.w3.org/2000/svg"
   xmlns:rdf="http://www.w3.org/1999/02/22-rdf-syntax-ns#"
   xmlns:cc="http://creativecommons.org/ns#"
   xmlns:dc="http://purl.org/dc/elements/1.1/">
  <defs
     id="defs854" />
  <sodipodi:namedview
     id="namedview852"
     pagecolor="#ffffff"
     bordercolor="#666666"
     borderopacity="1.0"
     inkscape:pageshadow="2"
     inkscape:pageopacity="0.0"
     inkscape:pagecheckerboard="0"
     showgrid="false"
     inkscape:zoom="48.375"
     inkscape:cx="12.020672"
     inkscape:cy="46.728682"
     inkscape:window-width="2560"
     inkscape:window-height="1369"
     inkscape:window-x="2552"
     inkscape:window-y="-8"
     inkscape:window-maximized="1"
     inkscape:current-layer="svg850" />
  <title
     id="title840">priority</title>
  <g
     data-name="5 priority"
     id="g844"
     transform="matrix(0.71399,0,0,0.71400623,0.57615995,0.63062764)"
     style="fill:#aa0000">
    <path
       d="m 29.71,15.29 -13,-13 a 1,1 0 0 0 -1.42,0 l -13,13 a 1,1 0 0 0 0,1.42 l 13,13 a 1.84,1.84 0 0 0 1.42,0 l 13,-13 a 1,1 0 0 0 0,-1.42 z M 16,27.59 4.41,16 16,4.41 27.59,16 Z M 16,25 a 1,1 0 0 1 -0.71,-0.29 l -8,-8 a 1,1 0 0 1 0,-1.42 l 8,-8 a 1,1 0 0 1 1.42,0 l 8,8 a 1,1 0 0 1 0,1.42 l -8,8 A 1,1 0 0 1 16,25 Z M 9.41,16 16,22.59 22.59,16 16,9.41 Z"
       id="path842"
       style="fill:#aa0000" />
  </g>
  <metadata
     id="metadata936">
    <rdf:RDF>
      <cc:Work
         rdf:about="">
        <dc:title>priority</dc:title>
      </cc:Work>
    </rdf:RDF>
  </metadata>
</svg>
