<?xml version="1.0" encoding="UTF-8" standalone="no"?>
<svg
   viewBox="0 0 100 100"
   version="1.1"
   x="0px"
   y="0px"
   id="svg7205"
   sodipodi:docname="kind_theme.svg"
   width="100"
   height="100"
   inkscape:version="1.1 (c68e22c387, 2021-05-23)"
   xmlns:inkscape="http://www.inkscape.org/namespaces/inkscape"
   xmlns:sodipodi="http://sodipodi.sourceforge.net/DTD/sodipodi-0.dtd"
   xmlns="http://www.w3.org/2000/svg"
   xmlns:svg="http://www.w3.org/2000/svg"
   xmlns:rdf="http://www.w3.org/1999/02/22-rdf-syntax-ns#"
   xmlns:cc="http://creativecommons.org/ns#"
   xmlns:dc="http://purl.org/dc/elements/1.1/">
  <defs
     id="defs7209" />
  <sodipodi:namedview
     id="namedview7207"
     pagecolor="#ffffff"
     bordercolor="#666666"
     borderopacity="1.0"
     inkscape:pageshadow="2"
     inkscape:pageopacity="0.0"
     inkscape:pagecheckerboard="0"
     showgrid="false"
     height="100px"
     inkscape:zoom="11.61"
     inkscape:cx="50"
     inkscape:cy="50"
     inkscape:window-width="2560"
     inkscape:window-height="1369"
     inkscape:window-x="2552"
     inkscape:window-y="-8"
     inkscape:window-maximized="1"
     inkscape:current-layer="svg7205" />
  <title
     id="title7169">backlog breakdown scrum story epic feature</title>
  <desc
     id="desc7171">Created with Sketch.</desc>
  <g
     stroke="none"
     stroke-width="1"
     fill="none"
     fill-rule="evenodd"
     id="g7199"
     style="fill:#800080;fill-opacity:1"
     transform="matrix(1.25,0,0,1.25,-12.5,-21.25)">
    <path
       d="m 13,17 h 14 c 1.656854,0 3,1.343146 3,3 v 60 c 0,1.656854 -1.343146,3 -3,3 H 13 c -1.656854,0 -3,-1.343146 -3,-3 V 20 c 0,-1.656854 1.343146,-3 3,-3 z"
       fill="#000000"
       fill-rule="nonzero"
       id="path7173"
       style="fill:#800080;fill-opacity:1" />
    <path
       d="M 37,20 V 33 H 51 V 20 Z m 0,-3 h 14 c 1.656854,0 3,1.343146 3,3 v 13 c 0,1.656854 -1.343146,3 -3,3 H 37 c -1.656854,0 -3,-1.343146 -3,-3 V 20 c 0,-1.656854 1.343146,-3 3,-3 z"
       fill="#000000"
       fill-rule="nonzero"
       id="path7175"
       style="fill:#800080;fill-opacity:1" />
    <rect
       fill="#000000"
       x="58"
       y="18"
       width="32"
       height="3"
       rx="1.5"
       id="rect7177"
       style="fill:#800080;fill-opacity:1" />
    <rect
       fill="#000000"
       x="58"
       y="25"
       width="32"
       height="3"
       rx="1.5"
       id="rect7179"
       style="fill:#800080;fill-opacity:1" />
    <rect
       fill="#000000"
       x="58"
       y="32"
       width="32"
       height="3"
       rx="1.5"
       id="rect7181"
       style="fill:#800080;fill-opacity:1" />
    <rect
       fill="#000000"
       x="58"
       y="41"
       width="32"
       height="3"
       rx="1.5"
       id="rect7183"
       style="fill:#800080;fill-opacity:1" />
    <rect
       fill="#000000"
       x="58"
       y="48"
       width="32"
       height="3"
       rx="1.5"
       id="rect7185"
       style="fill:#800080;fill-opacity:1" />
    <rect
       fill="#000000"
       x="58"
       y="55"
       width="32"
       height="3"
       rx="1.5"
       id="rect7187"
       style="fill:#800080;fill-opacity:1" />
    <rect
       fill="#000000"
       x="58"
       y="65"
       width="32"
       height="3"
       rx="1.5"
       id="rect7189"
       style="fill:#800080;fill-opacity:1" />
    <rect
       fill="#000000"
       x="58"
       y="72"
       width="32"
       height="3"
       rx="1.5"
       id="rect7191"
       style="fill:#800080;fill-opacity:1" />
    <rect
       fill="#000000"
       x="58"
       y="79"
       width="32"
       height="3"
       rx="1.5"
       id="rect7193"
       style="fill:#800080;fill-opacity:1" />
    <path
       d="m 37,43.5 v 13 h 14 v -13 z m 0,-3 h 14 c 1.656854,0 3,1.343146 3,3 v 13 c 0,1.656854 -1.343146,3 -3,3 H 37 c -1.656854,0 -3,-1.343146 -3,-3 v -13 c 0,-1.656854 1.343146,-3 3,-3 z"
       fill="#000000"
       fill-rule="nonzero"
       id="path7195"
       style="fill:#800080;fill-opacity:1" />
    <path
       d="M 37,67 V 80 H 51 V 67 Z m 0,-3 h 14 c 1.656854,0 3,1.343146 3,3 v 13 c 0,1.656854 -1.343146,3 -3,3 H 37 c -1.656854,0 -3,-1.343146 -3,-3 V 67 c 0,-1.656854 1.343146,-3 3,-3 z"
       fill="#000000"
       fill-rule="nonzero"
       id="path7197"
       style="fill:#800080;fill-opacity:1" />
  </g>
  <metadata
     id="metadata7291">
    <rdf:RDF>
      <cc:Work
         rdf:about="">
        <dc:title>backlog breakdown scrum story epic feature</dc:title>
      </cc:Work>
    </rdf:RDF>
  </metadata>
</svg>
