<?xml version="1.0" encoding="UTF-8" standalone="no"?>
<svg
   viewBox="0 0 100 100"
   version="1.1"
   x="0px"
   y="0px"
   id="svg174"
   sodipodi:docname="kind_epic.svg"
   width="100"
   height="100"
   inkscape:version="1.1 (c68e22c387, 2021-05-23)"
   xmlns:inkscape="http://www.inkscape.org/namespaces/inkscape"
   xmlns:sodipodi="http://sodipodi.sourceforge.net/DTD/sodipodi-0.dtd"
   xmlns="http://www.w3.org/2000/svg"
   xmlns:svg="http://www.w3.org/2000/svg"
   xmlns:rdf="http://www.w3.org/1999/02/22-rdf-syntax-ns#"
   xmlns:cc="http://creativecommons.org/ns#"
   xmlns:dc="http://purl.org/dc/elements/1.1/">
  <defs
     id="defs178" />
  <sodipodi:namedview
     id="namedview176"
     pagecolor="#ffffff"
     bordercolor="#666666"
     borderopacity="1.0"
     inkscape:pageshadow="2"
     inkscape:pageopacity="0.0"
     inkscape:pagecheckerboard="0"
     showgrid="false"
     height="100px"
     inkscape:zoom="11.61"
     inkscape:cx="50"
     inkscape:cy="50"
     inkscape:window-width="2560"
     inkscape:window-height="1369"
     inkscape:window-x="2552"
     inkscape:window-y="-8"
     inkscape:window-maximized="1"
     inkscape:current-layer="svg174" />
  <title
     id="title138">feature breakdown scrum backlog</title>
  <desc
     id="desc140">Created with Sketch.</desc>
  <g
     stroke="none"
     stroke-width="1"
     fill="none"
     fill-rule="evenodd"
     id="g168"
     style="fill:#c6415a;fill-opacity:1"
     transform="matrix(1.25,0,0,1.25,-12.5,-21.25)">
    <path
       d="M 13,20 V 80 H 27 V 20 Z m 0,-3 h 14 c 1.656854,0 3,1.343146 3,3 v 60 c 0,1.656854 -1.343146,3 -3,3 H 13 c -1.656854,0 -3,-1.343146 -3,-3 V 20 c 0,-1.656854 1.343146,-3 3,-3 z"
       fill="#000000"
       fill-rule="nonzero"
       id="path142"
       style="fill:#c6415a;fill-opacity:1" />
    <path
       d="m 37,17 h 14 c 1.656854,0 3,1.343146 3,3 v 13 c 0,1.656854 -1.343146,3 -3,3 H 37 c -1.656854,0 -3,-1.343146 -3,-3 V 20 c 0,-1.656854 1.343146,-3 3,-3 z"
       fill="#000000"
       fill-rule="nonzero"
       id="path144"
       style="fill:#c6415a;fill-opacity:1" />
    <rect
       fill="#000000"
       x="58"
       y="18"
       width="32"
       height="3"
       rx="1.5"
       id="rect146"
       style="fill:#c6415a;fill-opacity:1" />
    <rect
       fill="#000000"
       x="58"
       y="25"
       width="32"
       height="3"
       rx="1.5"
       id="rect148"
       style="fill:#c6415a;fill-opacity:1" />
    <rect
       fill="#000000"
       x="58"
       y="32"
       width="32"
       height="3"
       rx="1.5"
       id="rect150"
       style="fill:#c6415a;fill-opacity:1" />
    <rect
       fill="#000000"
       x="58"
       y="41"
       width="32"
       height="3"
       rx="1.5"
       id="rect152"
       style="fill:#c6415a;fill-opacity:1" />
    <rect
       fill="#000000"
       x="58"
       y="48"
       width="32"
       height="3"
       rx="1.5"
       id="rect154"
       style="fill:#c6415a;fill-opacity:1" />
    <rect
       fill="#000000"
       x="58"
       y="55"
       width="32"
       height="3"
       rx="1.5"
       id="rect156"
       style="fill:#c6415a;fill-opacity:1" />
    <rect
       fill="#000000"
       x="58"
       y="65"
       width="32"
       height="3"
       rx="1.5"
       id="rect158"
       style="fill:#c6415a;fill-opacity:1" />
    <rect
       fill="#000000"
       x="58"
       y="72"
       width="32"
       height="3"
       rx="1.5"
       id="rect160"
       style="fill:#c6415a;fill-opacity:1" />
    <rect
       fill="#000000"
       x="58"
       y="79"
       width="32"
       height="3"
       rx="1.5"
       id="rect162"
       style="fill:#c6415a;fill-opacity:1" />
    <path
       d="m 37,40.5 h 14 c 1.656854,0 3,1.343146 3,3 v 13 c 0,1.656854 -1.343146,3 -3,3 H 37 c -1.656854,0 -3,-1.343146 -3,-3 v -13 c 0,-1.656854 1.343146,-3 3,-3 z"
       fill="#000000"
       fill-rule="nonzero"
       id="path164"
       style="fill:#c6415a;fill-opacity:1" />
    <path
       d="m 37,64 h 14 c 1.656854,0 3,1.343146 3,3 v 13 c 0,1.656854 -1.343146,3 -3,3 H 37 c -1.656854,0 -3,-1.343146 -3,-3 V 67 c 0,-1.656854 1.343146,-3 3,-3 z"
       fill="#000000"
       fill-rule="nonzero"
       id="path166"
       style="fill:#c6415a;fill-opacity:1" />
  </g>
  <metadata
     id="metadata420">
    <rdf:RDF>
      <cc:Work
         rdf:about="">
        <dc:title>feature breakdown scrum backlog</dc:title>
      </cc:Work>
    </rdf:RDF>
  </metadata>
</svg>
