<?xml version="1.0" encoding="UTF-8" standalone="no"?>
<svg
   viewBox="0 0 24 24"
   x="0px"
   y="0px"
   version="1.1"
   id="svg854"
   sodipodi:docname="state_proposed.svg"
   width="24"
   height="24"
   inkscape:version="1.1 (c68e22c387, 2021-05-23)"
   xmlns:inkscape="http://www.inkscape.org/namespaces/inkscape"
   xmlns:sodipodi="http://sodipodi.sourceforge.net/DTD/sodipodi-0.dtd"
   xmlns="http://www.w3.org/2000/svg"
   xmlns:svg="http://www.w3.org/2000/svg"
   xmlns:rdf="http://www.w3.org/1999/02/22-rdf-syntax-ns#"
   xmlns:cc="http://creativecommons.org/ns#"
   xmlns:dc="http://purl.org/dc/elements/1.1/">
  <defs
     id="defs858" />
  <sodipodi:namedview
     id="namedview856"
     pagecolor="#ffffff"
     bordercolor="#666666"
     borderopacity="1.0"
     inkscape:pageshadow="2"
     inkscape:pageopacity="0.0"
     inkscape:pagecheckerboard="0"
     showgrid="false"
     inkscape:zoom="48.375"
     inkscape:cx="12"
     inkscape:cy="12"
     inkscape:window-width="2560"
     inkscape:window-height="1369"
     inkscape:window-x="2552"
     inkscape:window-y="-8"
     inkscape:window-maximized="1"
     inkscape:current-layer="svg854" />
  <title
     id="title842">pending, time, clock, watch, timer</title>
  <g
     data-name="05"
     id="g848"
     style="fill:#b3b3b3">
    <path
       d="M 12,2 A 10,10 0 1 0 22,12 10,10 0 0 0 12,2 Z m 0,18 a 8,8 0 1 1 8,-8 8,8 0 0 1 -8,8 z"
       id="path844"
       style="fill:#b3b3b3" />
    <path
       d="m 12,6 a 1,1 0 0 0 -1,1 v 4.59 l -2.71,2.7 A 1,1 0 1 0 9.7,15.7 l 3,-3 A 1,1 0 0 0 13,12 V 7 A 1,1 0 0 0 12,6 Z"
       id="path846"
       style="fill:#b3b3b3" />
  </g>
  <text
     x="0"
     y="39"
     fill="#000000"
     font-size="5px"
     font-weight="bold"
     font-family="'Helvetica Neue', Helvetica, Arial-Unicode, Arial, Sans-serif"
     id="text850">Created by Kantor Tegalsari</text>
  <text
     x="0"
     y="44"
     fill="#000000"
     font-size="5px"
     font-weight="bold"
     font-family="'Helvetica Neue', Helvetica, Arial-Unicode, Arial, Sans-serif"
     id="text852">from the Noun Project</text>
  <metadata
     id="metadata940">
    <rdf:RDF>
      <cc:Work
         rdf:about="">
        <dc:title>pending, time, clock, watch, timer</dc:title>
      </cc:Work>
    </rdf:RDF>
  </metadata>
</svg>
