<?xml version="1.0" encoding="UTF-8" standalone="no"?>
<svg
   viewBox="0 0 24 24"
   x="0px"
   y="0px"
   version="1.1"
   id="svg1821"
   sodipodi:docname="state_committed.svg"
   width="24"
   height="24"
   inkscape:version="1.1 (c68e22c387, 2021-05-23)"
   xmlns:inkscape="http://www.inkscape.org/namespaces/inkscape"
   xmlns:sodipodi="http://sodipodi.sourceforge.net/DTD/sodipodi-0.dtd"
   xmlns="http://www.w3.org/2000/svg"
   xmlns:svg="http://www.w3.org/2000/svg"
   xmlns:rdf="http://www.w3.org/1999/02/22-rdf-syntax-ns#"
   xmlns:cc="http://creativecommons.org/ns#"
   xmlns:dc="http://purl.org/dc/elements/1.1/">
  <defs
     id="defs1825" />
  <sodipodi:namedview
     id="namedview1823"
     pagecolor="#ffffff"
     bordercolor="#666666"
     borderopacity="1.0"
     inkscape:pageshadow="2"
     inkscape:pageopacity="0.0"
     inkscape:pagecheckerboard="0"
     showgrid="false"
     inkscape:zoom="48.375"
     inkscape:cx="12"
     inkscape:cy="12"
     inkscape:window-width="2560"
     inkscape:window-height="1369"
     inkscape:window-x="2552"
     inkscape:window-y="-8"
     inkscape:window-maximized="1"
     inkscape:current-layer="svg1821" />
  <title
     id="title1811">25 Progress</title>
  <g
     data-name="25 Progress"
     id="g1815"
     style="fill:#2060ff;fill-opacity:1">
    <path
       d="M 22,12 A 10,10 0 0 1 12,22 1,1 0 0 1 12,20 8,8 0 0 0 12,4 1,1 0 0 1 12,2 10,10 0 0 1 22,12 Z M 5.64,6.63 a 1,1 0 0 0 0.7,-0.29 7.81,7.81 0 0 1 2.1,-1.49 1.0017984,1.0017984 0 1 0 -0.88,-1.8 10,10 0 0 0 -2.62,1.87 1,1 0 0 0 0,1.41 1,1 0 0 0 0.7,0.3 z m 2.8,12.52 A 7.65,7.65 0 0 1 6.35,17.65 1.0040916,1.0040916 0 0 0 4.93,19.07 9.89,9.89 0 0 0 7.56,21 1,1 0 0 0 8,21.1 1,1 0 0 0 8.44,19.2 Z m -4.65,-11 a 1,1 0 0 0 -1.27,0.63 10.11,10.11 0 0 0 0,6.4 1,1 0 0 0 1,0.68 1.25,1.25 0 0 0 0.32,-0.05 1,1 0 0 0 0.63,-1.27 8,8 0 0 1 0,-5.12 A 1,1 0 0 0 3.79,8.17 Z M 16.71,10 A 1.0040916,1.0040916 0 0 0 15.29,8.58 l -4.79,4.8 -1.79,-1.8 A 1.0040916,1.0040916 0 1 0 7.29,13 l 2.5,2.5 a 1,1 0 0 0 1.42,0 z"
       id="path1813"
       style="fill:#2060ff;fill-opacity:1" />
  </g>
  <text
     x="0"
     y="39"
     fill="#000000"
     font-size="5px"
     font-weight="bold"
     font-family="'Helvetica Neue', Helvetica, Arial-Unicode, Arial, Sans-serif"
     id="text1817">Created by Soni Sokell</text>
  <text
     x="0"
     y="44"
     fill="#000000"
     font-size="5px"
     font-weight="bold"
     font-family="'Helvetica Neue', Helvetica, Arial-Unicode, Arial, Sans-serif"
     id="text1819">from the Noun Project</text>
  <metadata
     id="metadata1884">
    <rdf:RDF>
      <cc:Work
         rdf:about="">
        <dc:title>25 Progress</dc:title>
      </cc:Work>
    </rdf:RDF>
  </metadata>
</svg>
