<?xml version="1.0" encoding="UTF-8" standalone="no"?>
<svg
   viewBox="0 0 24 24"
   version="1.1"
   xml:space="preserve"
   x="0px"
   y="0px"
   fill-rule="evenodd"
   clip-rule="evenodd"
   stroke-linejoin="round"
   stroke-miterlimit="2"
   id="svg922"
   sodipodi:docname="state_inprogress.svg"
   width="24"
   height="24"
   inkscape:version="1.1 (c68e22c387, 2021-05-23)"
   xmlns:inkscape="http://www.inkscape.org/namespaces/inkscape"
   xmlns:sodipodi="http://sodipodi.sourceforge.net/DTD/sodipodi-0.dtd"
   xmlns="http://www.w3.org/2000/svg"
   xmlns:svg="http://www.w3.org/2000/svg"><defs
     id="defs926" /><sodipodi:namedview
     id="namedview924"
     pagecolor="#ffffff"
     bordercolor="#666666"
     borderopacity="1.0"
     inkscape:pageshadow="2"
     inkscape:pageopacity="0.0"
     inkscape:pagecheckerboard="0"
     showgrid="false"
     inkscape:zoom="48.375"
     inkscape:cx="12"
     inkscape:cy="12"
     inkscape:window-width="2560"
     inkscape:window-height="1369"
     inkscape:window-x="2552"
     inkscape:window-y="-8"
     inkscape:window-maximized="1"
     inkscape:current-layer="svg922" /><g
     id="g8760"><g
       transform="matrix(0.35509996,0,0,0.21305801,-255.03516,-13.992992)"
       id="g880"
       style="fill:#2060ff;fill-opacity:1"><path
         d="m 749.833,92 v 10 c 0,1.993 0.971,3.611 2.167,3.611 1.196,0 2.167,-1.618 2.167,-3.611 V 92 c 0,-1.993 -0.971,-3.611 -2.167,-3.611 -1.196,0 -2.167,1.618 -2.167,3.611 z"
         id="path878"
         style="fill:#2060ff;fill-opacity:1" /></g><g
       transform="matrix(0.2510936,0.25109137,-0.150656,0.15065467,-158.44218,-195.20067)"
       id="g884"
       style="fill:#2060ff;fill-opacity:1"><path
         d="m 749.833,92 v 10 c 0,1.993 0.971,3.611 2.167,3.611 1.196,0 2.167,-1.618 2.167,-3.611 V 92 c 0,-1.993 -0.971,-3.611 -2.167,-3.611 -1.196,0 -2.167,1.618 -2.167,3.611 z"
         id="path882"
         style="fill:#2060ff;fill-opacity:1" /></g><g
       transform="matrix(0,0.35509681,-0.17754979,0,34.371327,-255.03276)"
       id="g888"
       style="fill:#2060ff;fill-opacity:1"><path
         d="m 749.833,92 v 10 c 0,2.392 0.971,4.333 2.167,4.333 1.196,0 2.167,-1.941 2.167,-4.333 V 92 c 0,-2.392 -0.971,-4.333 -2.167,-4.333 -1.196,0 -2.167,1.941 -2.167,4.333 z"
         id="path886"
         style="fill:#2060ff;fill-opacity:1" /></g><g
       transform="matrix(-0.2510936,0.25109137,-0.12554679,-0.12554568,216.64136,-161.00189)"
       id="g892"
       style="fill:#2060ff;fill-opacity:1"><path
         d="m 749.833,92 v 10 c 0,2.392 0.971,4.333 2.167,4.333 1.196,0 2.167,-1.941 2.167,-4.333 V 92 c 0,-2.392 -0.971,-4.333 -2.167,-4.333 -1.196,0 -2.167,1.941 -2.167,4.333 z"
         id="path890"
         style="fill:#2060ff;fill-opacity:1" /></g><g
       transform="matrix(-0.35509996,0,0,-0.14203881,279.03525,30.749206)"
       id="g896"
       style="fill:#2060ff;fill-opacity:1"><path
         d="m 749.833,92 v 10 c 0,2.99 0.971,5.417 2.167,5.417 1.196,0 2.167,-2.427 2.167,-5.417 V 92 c 0,-2.99 -0.971,-5.417 -2.167,-5.417 -1.196,0 -2.167,2.427 -2.167,5.417 z"
         id="path894"
         style="fill:#2060ff;fill-opacity:1" /></g><g
       transform="matrix(-0.2510936,-0.25109137,0.10043758,-0.10043669,187.56483,214.07833)"
       id="g900"
       style="fill:#2060ff;fill-opacity:1"><path
         d="m 749.833,92 v 10 c 0,2.99 0.971,5.417 2.167,5.417 1.196,0 2.167,-2.427 2.167,-5.417 V 92 c 0,-2.99 -0.971,-5.417 -2.167,-5.417 -1.196,0 -2.167,2.427 -2.167,5.417 z"
         id="path898"
         style="fill:#2060ff;fill-opacity:1" /></g><g
       transform="matrix(0,-0.35509681,0.10652995,0,-3.1272093,279.03292)"
       id="g904"
       style="fill:#2060ff;fill-opacity:1"><path
         d="m 749.833,92 v 10 c 0,3.986 0.971,7.222 2.167,7.222 1.196,0 2.167,-3.236 2.167,-7.222 V 92 c 0,-3.986 -0.971,-7.222 -2.167,-7.222 -1.196,0 -2.167,3.236 -2.167,7.222 z"
         id="path902"
         style="fill:#2060ff;fill-opacity:1" /></g><g
       transform="matrix(0.2510936,-0.25109137,0.07532799,0.07532733,-187.51909,190.12417)"
       id="g908"
       style="fill:#2060ff;fill-opacity:1"><path
         d="m 749.833,92 v 10 c 0,3.986 0.971,7.222 2.167,7.222 1.196,0 2.167,-3.236 2.167,-7.222 V 92 c 0,-3.986 -0.971,-7.222 -2.167,-7.222 -1.196,0 -2.167,3.236 -2.167,7.222 z"
         id="path906"
         style="fill:#2060ff;fill-opacity:1" /></g><g
       transform="matrix(0.32642159,-0.3264187,0.32642159,0.3264187,-292.22483,142.56748)"
       id="g912"
       style="fill:#2060ff;fill-opacity:1"><path
         d="m 666,284.333 c -10.118,0 -18.333,-8.215 -18.333,-18.333 0,-10.118 8.215,-18.333 18.333,-18.333 10.118,0 18.333,8.215 18.333,18.333 0,7.976 -5.104,14.77 -12.222,17.289 -0.868,0.307 -1.322,1.26 -1.016,2.127 0.307,0.867 1.261,1.322 2.128,1.015 8.411,-2.977 14.444,-11.005 14.444,-20.431 0,-11.958 -9.709,-21.667 -21.667,-21.667 -11.958,0 -21.667,9.709 -21.667,21.667 0,11.958 9.709,21.667 21.667,21.667 0.92,0 1.667,-0.747 1.667,-1.667 0,-0.92 -0.747,-1.667 -1.667,-1.667 z"
         id="path910"
         style="fill:#2060ff;fill-opacity:1" /></g></g></svg>
